<svg width="754" height="846" viewBox="0 0 754 846" fill="none" xmlns="http://www.w3.org/2000/svg">
<path d="M622.761 214C620.968 215.621 619.856 218.483 622.852 223.242C622.852 223.242 614.012 235.195 627.458 241.919C627.458 241.919 628.172 254.941 640 252.752" stroke="#4A72FF" stroke-width="0.7" stroke-linecap="round" stroke-linejoin="round"/>
<path d="M637.571 217.802C635.977 218.197 634.289 218.156 632.721 217.686C631.152 217.215 629.773 216.336 628.759 215.16C627.744 213.983 627.14 212.562 627.021 211.075C626.903 209.589 627.276 208.104 628.094 206.809C628.911 205.513 630.137 204.466 631.615 203.798C633.093 203.131 634.757 202.873 636.397 203.058C638.038 203.244 639.58 203.863 640.83 204.839C642.08 205.814 642.98 207.102 643.418 208.539L655.74 248.973C656.093 250.159 656.086 251.408 655.722 252.591C655.358 253.774 654.649 254.848 653.669 255.7C652.304 256.991 650.469 257.795 648.499 257.966C646.53 258.137 644.559 257.662 642.946 256.629C641.333 255.595 640.188 254.073 639.719 252.34C639.25 250.608 639.489 248.781 640.393 247.194L643.557 241.658" stroke="#4A72FF" stroke-width="0.7" stroke-miterlimit="10" stroke-linecap="round"/>
<path d="M641.357 205C641.951 205.339 642.415 205.808 642.697 206.353C642.978 206.898 643.066 207.497 642.95 208.081C642.839 208.605 642.584 209.102 642.205 209.534C641.825 209.967 641.33 210.323 640.757 210.576C640.184 210.829 639.548 210.973 638.897 210.997C638.247 211.02 637.598 210.923 637 210.712" stroke="#4A72FF" stroke-width="0.7" stroke-miterlimit="10" stroke-linecap="round"/>
<path d="M635 225.999C633.709 226.027 632.458 225.633 631.52 224.904C630.583 224.174 630.037 223.168 630.002 222.107C629.967 221.047 630.446 220.018 631.334 219.248C632.222 218.478 633.446 218.029 634.737 218" stroke="#4A72FF" stroke-width="0.7" stroke-miterlimit="10" stroke-linecap="round"/>
<path d="M648 225.421C646.971 224.947 645.795 224.87 644.71 225.206C643.625 225.542 642.712 226.265 642.156 227.229C642.156 227.229 638.546 237.792 634 239" stroke="#4A72FF" stroke-width="0.7" stroke-miterlimit="10" stroke-linecap="round"/>
<path d="M637 245H642" stroke="#4A72FF" stroke-width="0.7" stroke-miterlimit="10" stroke-linecap="round"/>
<path d="M630 232C632.818 232.547 635.522 233.561 638 235" stroke="#4A72FF" stroke-width="0.7" stroke-miterlimit="10" stroke-linecap="round"/>
<path d="M650 249C650.147 248.434 650.525 247.927 651.071 247.563C651.617 247.199 652.298 247 653 247C653.702 247 654.383 247.199 654.929 247.563C655.475 247.927 655.853 248.434 656 249" stroke="#4A72FF" stroke-width="0.7" stroke-miterlimit="10" stroke-linecap="round"/>
<path d="M665 204C667.295 204.572 669.636 206.482 669.766 211.943C669.766 211.943 683.032 218.132 675.887 230.006C675.887 230.006 682.129 241.471 671.618 245" stroke="#4A72FF" stroke-width="0.7" stroke-linecap="round" stroke-linejoin="round"/>
<path d="M653.686 214.05C655.297 213.648 656.741 212.822 657.835 211.677C658.928 210.531 659.623 209.117 659.831 207.614C660.038 206.11 659.75 204.585 659.001 203.23C658.253 201.875 657.078 200.752 655.626 200.003C654.174 199.253 652.51 198.911 650.843 199.02C649.177 199.128 647.583 199.682 646.264 200.612C644.945 201.542 643.959 202.806 643.432 204.244C642.904 205.682 642.859 207.229 643.301 208.69L655.755 249.801C656.128 251.003 656.849 252.093 657.843 252.957C658.838 253.82 660.069 254.426 661.409 254.712C663.336 255.209 665.396 255.059 667.21 254.288C669.024 253.518 670.471 252.18 671.284 250.519C672.097 248.859 672.222 246.988 671.636 245.251C671.05 243.514 669.792 242.027 668.093 241.063L662.176 237.7" stroke="#4A72FF" stroke-width="0.7" stroke-miterlimit="10" stroke-linecap="round"/>
<path d="M643.359 204C643.046 204.593 642.935 205.249 643.037 205.894C643.139 206.539 643.45 207.146 643.935 207.646C644.377 208.091 644.932 208.443 645.556 208.677C646.18 208.911 646.857 209.021 647.537 208.997C648.217 208.973 648.882 208.817 649.482 208.54C650.082 208.263 650.601 207.873 651 207.398" stroke="#4A72FF" stroke-width="0.7" stroke-miterlimit="10" stroke-linecap="round"/>
<path d="M660.932 219C661.395 218.761 661.802 218.44 662.13 218.055C662.459 217.67 662.702 217.229 662.847 216.756C662.992 216.284 663.034 215.79 662.973 215.303C662.911 214.816 662.747 214.344 662.488 213.916C662.23 213.487 661.883 213.11 661.468 212.806C661.052 212.501 660.576 212.276 660.067 212.142C659.557 212.008 659.024 211.968 658.498 212.025C657.971 212.082 657.463 212.235 657 212.474" stroke="#4A72FF" stroke-width="0.7" stroke-miterlimit="10" stroke-linecap="round"/>
<path d="M649 224.985C649.662 224.041 650.673 223.372 651.83 223.116C652.986 222.859 654.201 223.033 655.229 223.602C655.229 223.602 664.262 231.111 669 229.859" stroke="#4A72FF" stroke-width="0.7" stroke-miterlimit="10" stroke-linecap="round"/>
<path d="M670 237L666 239" stroke="#4A72FF" stroke-width="0.7" stroke-miterlimit="10" stroke-linecap="round"/>
<path d="M668 222C665.996 224.002 664.305 226.368 663 229" stroke="#4A72FF" stroke-width="0.7" stroke-miterlimit="10" stroke-linecap="round"/>
<path d="M661 246.721C660.549 246.341 659.947 246.095 659.293 246.022C658.64 245.95 657.974 246.055 657.407 246.322C656.841 246.588 656.407 246.999 656.179 247.487C655.95 247.974 655.941 248.508 656.151 249" stroke="#4A72FF" stroke-width="0.7" stroke-miterlimit="10" stroke-linecap="round"/>
<path d="M132.1 442L127.751 442.954C127.751 442.954 130.467 458.062 132.427 461.287C134.682 464.984 155.856 480.514 156.924 484.722C157.72 487.776 152.072 489.366 149.826 489.899C144.807 491.045 124.811 495.756 119.792 496.554C117.546 496.894 112.121 497.885 111.125 495.038C111.125 494.972 111.085 494.905 111.069 494.839C109.994 490.631 121.816 467.965 121.664 463.697C121.521 459.719 116.988 445.365 116.988 445.365L112.639 446.319" stroke="#4A72FF" stroke-width="0.7" stroke-linecap="round" stroke-linejoin="round"/>
<path d="M118 476L142 471" stroke="#4A72FF" stroke-width="0.7" stroke-linecap="round" stroke-linejoin="round"/>
<path d="M133.028 481.95C133.682 481.808 134.086 481.203 133.932 480.601C133.777 479.998 133.121 479.624 132.467 479.767C131.813 479.91 131.409 480.514 131.563 481.117C131.718 481.72 132.374 482.093 133.028 481.95Z" stroke="#4A72FF" stroke-width="0.7" stroke-miterlimit="10"/>
<path d="M139.878 484.302C140.532 484.159 140.937 483.555 140.782 482.952C140.627 482.349 139.972 481.976 139.318 482.119C138.664 482.261 138.259 482.866 138.414 483.469C138.569 484.072 139.224 484.445 139.878 484.302Z" stroke="#4A72FF" stroke-width="0.7" stroke-miterlimit="10"/>
<path d="M586.563 744.084C585.649 747.145 583.399 749.761 580.304 751.36C577.21 752.96 573.523 753.411 570.052 752.617L539.101 745.49C535.634 744.684 532.67 742.697 530.858 739.966C529.046 737.234 528.534 733.98 529.434 730.916C530.348 727.855 532.599 725.239 535.693 723.64C538.788 722.04 542.474 721.589 545.945 722.383L576.937 729.51C580.397 730.324 583.352 732.314 585.155 735.045C586.959 737.775 587.465 741.025 586.563 744.084Z" stroke="#4A72FF" stroke-width="0.7" stroke-linecap="round" stroke-linejoin="round"/>
<path d="M555 749L561 726" stroke="#4A72FF" stroke-width="0.7" stroke-linecap="round" stroke-linejoin="round"/>
<path d="M539 740C534.444 738.869 533.234 735.209 534.436 733" stroke="#4A72FF" stroke-width="0.7" stroke-linecap="round" stroke-linejoin="round"/>
<path d="M566 733L575 735" stroke="#4A72FF" stroke-width="0.7" stroke-linecap="round" stroke-linejoin="round"/>
<path d="M662.324 651.66L633 639.585L655.245 594L684.569 606.075L662.324 651.66Z" stroke="#4A72FF" stroke-width="0.7" stroke-miterlimit="10" stroke-linecap="square"/>
<path d="M651.375 602.439L675.365 612.714" stroke="#4A72FF" stroke-width="0.7" stroke-miterlimit="10" stroke-linecap="square"/>
<path d="M662.366 615.475C667.433 617.561 669.699 623.026 667.428 627.68C665.156 632.335 659.207 634.417 654.14 632.33C649.073 630.244 646.807 624.779 649.078 620.125C651.35 615.47 657.299 613.388 662.366 615.475Z" stroke="#4A72FF" stroke-width="0.7" stroke-miterlimit="10" stroke-linecap="square"/>
<path d="M657.007 625.991L658.24 621.597" stroke="#4A72FF" stroke-width="0.7" stroke-miterlimit="10" stroke-linecap="square"/>
<path d="M660.658 624.354L655.045 623" stroke="#4A72FF" stroke-width="0.7" stroke-miterlimit="10" stroke-linecap="square"/>
<path d="M39.4031 204.396C38.3055 204.978 37.5021 205.939 37.1688 207.067C36.8356 208.195 36.9997 209.4 37.6252 210.417L40.32 214.779C40.9497 215.793 41.9888 216.536 43.2096 216.844C44.4305 217.152 45.7336 217 46.8337 216.422L59 210.026L51.5615 198L39.4031 204.396Z" stroke="#4A72FF" stroke-width="0.7" stroke-linecap="round" stroke-linejoin="round"/>
<path d="M54 197.938C55.4358 198.174 56.8463 198.516 58.2166 198.961C58.7515 198.809 68.2938 195 68.2938 195C68.8993 195.216 69.4383 195.555 69.8671 195.988C70.0443 196.507 70.0443 197.06 69.8671 197.578C69.8671 197.578 61.4812 202.998 61.08 203.295C60.8195 204.567 60.3973 205.81 59.8214 207" stroke="#4A72FF" stroke-width="0.7" stroke-linecap="round" stroke-linejoin="round"/>
<path d="M22.3871 169.808C22.1381 169.568 21.8371 169.374 21.5015 169.236C21.1658 169.097 20.802 169.018 20.4311 169.003C20.0601 168.987 19.6893 169.036 19.34 169.145C18.9906 169.255 18.6696 169.423 18.3954 169.641L11.9289 174.744C11.6534 174.96 11.4297 175.222 11.2709 175.514C11.112 175.806 11.021 176.122 11.0032 176.445C10.9854 176.767 11.0411 177.09 11.1671 177.393C11.2931 177.697 11.4869 177.976 11.7373 178.215L32.3742 198L43 189.621L22.3871 169.808Z" stroke="#4A72FF" stroke-width="0.7" stroke-linecap="round" stroke-linejoin="round"/>
<path d="M39 200L35 196" stroke="#4A72FF" stroke-width="0.7" stroke-linejoin="round"/>
<path d="M48 200L40 192" stroke="#4A72FF" stroke-width="0.7" stroke-linejoin="round"/>
<path d="M39.4031 204.396C38.3055 204.978 37.5021 205.939 37.1688 207.067C36.8356 208.195 36.9997 209.4 37.6252 210.417L40.32 214.779C40.9497 215.793 41.9888 216.536 43.2096 216.844C44.4305 217.152 45.7336 217 46.8337 216.422L59 210.026L51.5615 198L39.4031 204.396Z" stroke="#4A72FF" stroke-width="0.7" stroke-linecap="round" stroke-linejoin="round"/>
<path d="M54 197.938C55.4358 198.174 56.8463 198.516 58.2166 198.961C58.7515 198.809 68.2938 195 68.2938 195C68.8993 195.216 69.4383 195.555 69.8671 195.988C70.0443 196.507 70.0443 197.06 69.8671 197.578C69.8671 197.578 61.4812 202.998 61.08 203.295C60.8195 204.567 60.3973 205.81 59.8214 207" stroke="#4A72FF" stroke-width="0.7" stroke-linecap="round" stroke-linejoin="round"/>
<path d="M22.3871 169.808C22.1381 169.568 21.8371 169.374 21.5015 169.236C21.1658 169.097 20.802 169.018 20.4311 169.003C20.0601 168.987 19.6893 169.036 19.34 169.145C18.9906 169.255 18.6696 169.423 18.3954 169.641L11.9289 174.744C11.6534 174.96 11.4297 175.222 11.2709 175.514C11.112 175.806 11.021 176.122 11.0032 176.445C10.9854 176.767 11.0411 177.09 11.1671 177.393C11.2931 177.697 11.4869 177.976 11.7373 178.215L32.3742 198L43 189.621L22.3871 169.808Z" stroke="#4A72FF" stroke-width="0.7" stroke-linecap="round" stroke-linejoin="round"/>
<path d="M48 200L40 192" stroke="#4A72FF" stroke-width="0.7" stroke-linejoin="round"/>
<path d="M90 129.895C90.3074 127.373 91.4985 125.023 93.3802 123.227C95.6832 121.125 98.7569 119.967 101.943 120.001C105.13 120.035 108.176 121.258 110.429 123.409C112.682 125.56 113.964 128.467 113.999 131.509C114.035 134.55 112.822 137.484 110.619 139.682C109.281 140.956 107.644 141.908 105.845 142.458C104.045 143.009 102.134 143.142 100.269 142.847" stroke="#4A72FF" stroke-width="0.7" stroke-miterlimit="10"/>
<path d="M110 123L98 135" stroke="#4A72FF" stroke-width="0.7" stroke-miterlimit="10"/>
<path d="M87.5 152C94.4036 152 100 147.075 100 141C100 134.925 94.4036 130 87.5 130C80.5964 130 75 134.925 75 141C75 147.075 80.5964 152 87.5 152Z" stroke="#4A72FF" stroke-width="0.7" stroke-miterlimit="10"/>
<path d="M87 130V152" stroke="#4A72FF" stroke-width="0.7" stroke-miterlimit="10"/>
<path d="M60.0383 270C59.7299 276.042 61.142 284.574 69.5006 291.223C84.0186 302.765 77.5752 320 77.5752 320" stroke="#4A72FF" stroke-width="0.7" stroke-miterlimit="10" stroke-linecap="square"/>
<path d="M61 263C60.4402 265.251 60.1035 267.609 60 270" stroke="#4A72FF" stroke-width="0.7" stroke-miterlimit="10" stroke-linecap="square"/>
<path d="M64 292C49.1852 295.845 44 310 44 310" stroke="#4A72FF" stroke-width="0.7" stroke-miterlimit="10" stroke-linecap="square"/>
<path d="M95 273C95 273 89.8403 286.482 75 290" stroke="#4A72FF" stroke-width="0.7" stroke-miterlimit="10" stroke-linecap="square"/>
<path d="M91 278L77 274" stroke="#4A72FF" stroke-width="0.7" stroke-miterlimit="10" stroke-linecap="square"/>
<path d="M86 283L75 280" stroke="#4A72FF" stroke-width="0.7" stroke-miterlimit="10" stroke-linecap="square"/>
<path d="M81 287L73 284" stroke="#4A72FF" stroke-width="0.7" stroke-miterlimit="10" stroke-linecap="square"/>
<path d="M49 304L63 308" stroke="#4A72FF" stroke-width="0.7" stroke-miterlimit="10" stroke-linecap="square"/>
<path d="M53 299L65 303" stroke="#4A72FF" stroke-width="0.7" stroke-miterlimit="10" stroke-linecap="square"/>
<path d="M59 295L67 297" stroke="#4A72FF" stroke-width="0.7" stroke-miterlimit="10" stroke-linecap="square"/>
<path d="M51 435.613L12.2716 468L3 458.387L41.7123 426L51 435.613Z" stroke="#4A72FF" stroke-width="0.7" stroke-miterlimit="10" stroke-linecap="square"/>
<path d="M53.9438 431.186L50.0349 434.039L44.0557 427.814L47.9561 424.961L53.9438 431.186Z" stroke="#4A72FF" stroke-width="0.7" stroke-miterlimit="10" stroke-linecap="square"/>
<path d="M42.4975 453C44.8419 456.813 45.5735 461.317 44.5465 465.615C43.7244 469.595 41.5836 473.227 38.4313 475.991C35.2789 478.755 31.2771 480.509 27 481" stroke="#4A72FF" stroke-width="0.7" stroke-miterlimit="10" stroke-linecap="square"/>
<path d="M46.7037 447C51.2785 451.641 53.1257 457.723 51.31 466.726C50.2979 471.758 47.7243 476.382 43.9237 479.998C40.1232 483.614 35.2716 486.054 30 487" stroke="#4A72FF" stroke-width="0.7" stroke-miterlimit="10" stroke-linecap="square"/>
<path d="M15.4088 475.379L11.3428 494.974L22.8315 497.031L26.8975 477.436L15.4088 475.379Z" stroke="#4A72FF" stroke-width="0.7" stroke-miterlimit="10" stroke-linecap="square"/>
<path d="M13 482L1 473" stroke="#4A72FF" stroke-width="0.7" stroke-miterlimit="10" stroke-linecap="square"/>
<path d="M28 481L49 484" stroke="#4A72FF" stroke-width="0.7" stroke-miterlimit="10" stroke-linecap="square"/>
<path d="M46.7476 446.096C47.4058 442.924 45.1711 439.857 41.7562 439.245C38.3414 438.634 35.0395 440.71 34.3813 443.882C33.723 447.054 35.9578 450.121 39.3726 450.732C42.7875 451.343 46.0894 449.268 46.7476 446.096Z" stroke="#4A72FF" stroke-width="0.7" stroke-miterlimit="10" stroke-linecap="square"/>
<path d="M119.563 390.084C118.649 393.145 116.399 395.761 113.304 397.36C110.21 398.96 106.523 399.411 103.052 398.617L72.1015 391.49C68.6338 390.684 65.6696 388.697 63.8577 385.966C62.0458 383.234 61.5339 379.98 62.4341 376.916C63.3479 373.855 65.5985 371.239 68.6931 369.64C71.7878 368.04 75.4742 367.589 78.9454 368.383L109.937 375.51C113.397 376.324 116.352 378.314 118.155 381.045C119.959 383.775 120.465 387.025 119.563 390.084Z" stroke="#4A72FF" stroke-width="0.7" stroke-linecap="round" stroke-linejoin="round"/>
<path d="M88 395L94 372" stroke="#4A72FF" stroke-width="0.7" stroke-linecap="round" stroke-linejoin="round"/>
<path d="M72 386C67.4444 384.869 66.2336 381.209 67.4357 379" stroke="#4A72FF" stroke-width="0.7" stroke-linecap="round" stroke-linejoin="round"/>
<path d="M99 379L108 381" stroke="#4A72FF" stroke-width="0.7" stroke-linecap="round" stroke-linejoin="round"/>
<path d="M97.0834 521L47 532.255L61.6043 588.762L111.688 577.507L97.0834 521Z" stroke="#4A72FF" stroke-width="0.7" stroke-miterlimit="10" stroke-linecap="square"/>
<path d="M68.5225 571.337L99.5225 564.337" stroke="#4A72FF" stroke-width="0.7" stroke-miterlimit="10" stroke-linecap="square"/>
<path d="M65.5225 564.337L98.5225 557.337" stroke="#4A72FF" stroke-width="0.7" stroke-miterlimit="10" stroke-linecap="square"/>
<path d="M84.5225 574.337L101.522 570.337" stroke="#4A72FF" stroke-width="0.7" stroke-miterlimit="10" stroke-linecap="square"/>
<path d="M63.5225 543.337L68.5225 546.337" stroke="#4A72FF" stroke-width="0.7" stroke-miterlimit="10" stroke-linecap="round"/>
<path d="M66.5225 551.337L71.5225 542.337" stroke="#4A72FF" stroke-width="0.7" stroke-miterlimit="10" stroke-linecap="round"/>
<path d="M58.1946 544.256L63.6642 543.01C64.1342 542.919 64.5801 542.741 64.9752 542.484C65.3704 542.228 65.7068 541.899 65.9643 541.517C66.2217 541.135 66.3951 540.708 66.4739 540.261C66.5527 539.815 66.5354 539.358 66.4231 538.918C66.3107 538.478 66.1056 538.064 65.8199 537.7C65.5342 537.336 65.1738 537.031 64.7603 536.801C64.3467 536.572 63.8885 536.424 63.4129 536.365C62.9373 536.307 62.4541 536.339 61.9921 536.461L56.5225 537.715L59.4917 549.337" stroke="#4A72FF" stroke-width="0.7" stroke-miterlimit="10"/>
<path d="M69.5225 546.337L73.5225 549.337" stroke="#4A72FF" stroke-width="0.7" stroke-miterlimit="10" stroke-linecap="round"/>
<path d="M28.8408 683.879L29.4202 686.181C29.6569 687.109 30.3064 687.917 31.227 688.431C32.1475 688.944 33.2642 689.119 34.3334 688.92L41.5874 687.577C42.6582 687.373 43.5921 686.809 44.1844 686.007C44.7767 685.206 44.979 684.233 44.747 683.302L44.1676 681" stroke="#4A72FF" stroke-width="0.7" stroke-linejoin="round"/>
<path d="M16.9762 680.18L11.3333 656.162C10.5969 653.028 12.7379 649.933 16.1152 649.25L39.8353 644.45C43.2126 643.767 46.5474 645.754 47.2838 648.888L52.9267 672.906C53.6631 676.04 51.5221 679.134 48.1448 679.818L24.4247 684.617C21.0474 685.301 17.7126 683.314 16.9762 680.18Z" stroke="#4A72FF" stroke-width="0.7" stroke-miterlimit="10"/>
<path d="M16.9762 680.18L11.3333 656.162C10.5969 653.028 12.7379 649.933 16.1152 649.25L39.8353 644.45C43.2126 643.767 46.5474 645.754 47.2838 648.888L52.9267 672.906C53.6631 676.04 51.5221 679.134 48.1448 679.818L24.4247 684.617C21.0474 685.301 17.7126 683.314 16.9762 680.18Z" stroke="#4A72FF" stroke-width="0.7" stroke-linejoin="round"/>
<path d="M27.8408 647L26.8408 642" stroke="#4A72FF" stroke-width="0.7" stroke-miterlimit="10"/>
<path d="M33.8408 650L26.8408 652" stroke="#4A72FF" stroke-width="0.7" stroke-miterlimit="10"/>
<path d="M31.8408 644L25.8408 645" stroke="#4A72FF" stroke-width="0.7" stroke-miterlimit="10"/>
<path d="M22.8408 676L16.8408 678" stroke="#4A72FF" stroke-width="0.7" stroke-miterlimit="10"/>
<path d="M23.7337 642.06L21.8145 633.892L27.3189 632.778L29.2381 640.947L23.7337 642.06Z" stroke="#4A72FF" stroke-width="0.7" stroke-linecap="round" stroke-linejoin="round"/>
<path d="M24.3653 633L24.0801 631.836C22.9776 627.386 25.7916 623.025 30.3326 622.154C34.8736 621.283 39.4916 624.195 40.5864 628.659L40.8408 629.686" stroke="#4A72FF" stroke-width="0.7" stroke-miterlimit="10"/>
<path d="M51.8408 637.842C47.1012 638.734 42.2812 635.753 41.1385 631.184L40.8408 630" stroke="#4A72FF" stroke-width="0.7" stroke-miterlimit="10"/>
<path d="M14.8408 672C14.8408 672 19.926 668.244 30.619 667.816C30.619 667.816 44.1715 667.816 50.8408 663" stroke="#4A72FF" stroke-width="0.7" stroke-miterlimit="10"/>
<path d="M31.0287 654.748C31.1243 655.154 30.8463 655.556 30.4078 655.645C29.9693 655.734 29.5363 655.476 29.4407 655.069C29.3451 654.662 29.623 654.26 30.0616 654.171C30.5001 654.083 30.933 654.341 31.0287 654.748Z" stroke="#4A72FF" stroke-width="0.7" stroke-miterlimit="10"/>
<path d="M38.4554 658.205C38.551 658.612 38.2731 659.013 37.8346 659.102C37.3961 659.191 36.9631 658.933 36.8675 658.526C36.7718 658.119 37.0498 657.717 37.4883 657.628C37.9268 657.54 38.3598 657.798 38.4554 658.205Z" stroke="#4A72FF" stroke-width="0.7" stroke-miterlimit="10"/>
<path d="M80 713L83 717" stroke="#4A72FF" stroke-width="0.7" stroke-linecap="round" stroke-linejoin="round"/>
<path d="M71 727H76" stroke="#4A72FF" stroke-width="0.7" stroke-linecap="round" stroke-linejoin="round"/>
<path d="M80 741L83 738" stroke="#4A72FF" stroke-width="0.7" stroke-linecap="round" stroke-linejoin="round"/>
<path d="M98 713L96 717" stroke="#4A72FF" stroke-width="0.7" stroke-linecap="round" stroke-linejoin="round"/>
<path d="M82.5 717L76 727.496L82.5 738H95.5L102 727.496L95.5 717H82.5Z" stroke="#4A72FF" stroke-width="0.7" stroke-linecap="round" stroke-linejoin="round"/>
<path d="M86 722H92" stroke="#4A72FF" stroke-width="0.7" stroke-linecap="round" stroke-linejoin="round"/>
<path d="M85 733L82 727" stroke="#4A72FF" stroke-width="0.7" stroke-linecap="round" stroke-linejoin="round"/>
<path d="M118 752L115 748" stroke="#4A72FF" stroke-width="0.7" stroke-linecap="round" stroke-linejoin="round"/>
<path d="M127 737H122" stroke="#4A72FF" stroke-width="0.7" stroke-linecap="round" stroke-linejoin="round"/>
<path d="M118 723L115 727" stroke="#4A72FF" stroke-width="0.7" stroke-linecap="round" stroke-linejoin="round"/>
<path d="M100 752L102 748" stroke="#4A72FF" stroke-width="0.7" stroke-linecap="round" stroke-linejoin="round"/>
<path d="M115.5 748L122 737.5L115.5 727H102.5L96 737.5L102.5 748H115.5Z" stroke="#4A72FF" stroke-width="0.7" stroke-linecap="round" stroke-linejoin="round"/>
<path d="M116 738L112 743" stroke="#4A72FF" stroke-width="0.7" stroke-linecap="round" stroke-linejoin="round"/>
<path d="M105 732H112" stroke="#4A72FF" stroke-width="0.7" stroke-linecap="round" stroke-linejoin="round"/>
<path d="M207.596 815.112L160.908 805.946C159.302 805.631 158.283 804.201 158.633 802.752L166.146 771.623C166.496 770.174 168.081 769.256 169.687 769.571L216.375 778.736C217.981 779.052 219 780.482 218.65 781.93L211.137 813.06C210.787 814.509 209.202 815.427 207.596 815.112Z" stroke="#4A72FF" stroke-width="0.7" stroke-miterlimit="10" stroke-linecap="square"/>
<path d="M176.846 809.913L175.861 813.743C175.591 814.774 176.719 815.859 178.372 816.167L187.468 817.834C189.12 818.135 190.646 817.546 190.939 816.495L191.821 812.906" stroke="#4A72FF" stroke-width="0.7" stroke-miterlimit="10" stroke-linecap="square"/>
<path d="M159.821 796.913L211.821 806.913" stroke="#4A72FF" stroke-width="0.7" stroke-miterlimit="10" stroke-linecap="square"/>
<path d="M195.707 792.699L191.313 791.809L190.359 795.913L185.262 794.88L186.216 790.776L181.821 789.878L182.935 785.119L187.33 786.016L188.284 781.913L193.38 782.946L192.427 787.049L196.821 787.94L195.707 792.699Z" stroke="#4A72FF" stroke-width="0.7" stroke-miterlimit="10" stroke-linecap="square"/>
<path d="M279.784 777L316.473 762.176C316.781 762.052 317.059 761.873 317.292 761.651C317.524 761.428 317.706 761.166 317.828 760.879C317.949 760.592 318.007 760.285 317.999 759.978C317.991 759.67 317.917 759.367 317.78 759.086L314.067 751.396C313.932 751.115 313.737 750.86 313.493 750.648C313.25 750.435 312.963 750.269 312.649 750.158C312.336 750.046 312.001 749.993 311.665 750.001C311.328 750.008 310.997 750.076 310.689 750.201L274 765.025L279.784 777Z" stroke="#4A72FF" stroke-width="0.7" stroke-miterlimit="10" stroke-linecap="square"/>
<path d="M278 773.967L275.586 769L268 772.04L270.422 777L274.945 775.186" stroke="#4A72FF" stroke-width="0.7" stroke-miterlimit="10" stroke-linecap="square"/>
<path d="M315 752.541L317.661 758L324 755.459L321.339 750L318.023 751.33" stroke="#4A72FF" stroke-width="0.7" stroke-miterlimit="10" stroke-linecap="square"/>
<path d="M322 753L332 749" stroke="#4A72FF" stroke-width="0.7" stroke-miterlimit="10" stroke-linecap="square"/>
<path d="M306 752L308 755" stroke="#4A72FF" stroke-width="0.7" stroke-miterlimit="10" stroke-linecap="square"/>
<path d="M301 754L303 757" stroke="#4A72FF" stroke-width="0.7" stroke-miterlimit="10" stroke-linecap="square"/>
<path d="M296 756L298 759" stroke="#4A72FF" stroke-width="0.7" stroke-miterlimit="10" stroke-linecap="square"/>
<path d="M291 758L293 761" stroke="#4A72FF" stroke-width="0.7" stroke-miterlimit="10" stroke-linecap="square"/>
<path d="M286 760L288 763" stroke="#4A72FF" stroke-width="0.7" stroke-miterlimit="10" stroke-linecap="square"/>
<path d="M282 762L283 765" stroke="#4A72FF" stroke-width="0.7" stroke-miterlimit="10" stroke-linecap="square"/>
<path d="M265.561 768.202L271.438 779.798" stroke="#4A72FF" stroke-width="0.7" stroke-miterlimit="10" stroke-linecap="square"/>
<path d="M385.324 844.66L356 832.585L378.245 787L407.569 799.075L385.324 844.66Z" stroke="#4A72FF" stroke-width="0.7" stroke-miterlimit="10" stroke-linecap="square"/>
<path d="M374.375 795.439L398.365 805.714" stroke="#4A72FF" stroke-width="0.7" stroke-miterlimit="10" stroke-linecap="square"/>
<path d="M385.366 808.475C390.433 810.561 392.699 816.026 390.428 820.68C388.156 825.335 382.207 827.417 377.14 825.33C372.073 823.244 369.807 817.779 372.078 813.125C374.35 808.47 380.299 806.388 385.366 808.475Z" stroke="#4A72FF" stroke-width="0.7" stroke-miterlimit="10" stroke-linecap="square"/>
<path d="M380.007 818.991L381.24 814.597" stroke="#4A72FF" stroke-width="0.7" stroke-miterlimit="10" stroke-linecap="square"/>
<path d="M383.658 817.354L378.045 816" stroke="#4A72FF" stroke-width="0.7" stroke-miterlimit="10" stroke-linecap="square"/>
<path d="M472.761 771C470.968 772.621 469.856 775.483 472.852 780.242C472.852 780.242 464.012 792.195 477.458 798.919C477.458 798.919 478.172 811.941 490 809.752" stroke="#4A72FF" stroke-width="0.7" stroke-linecap="round" stroke-linejoin="round"/>
<path d="M487.571 774.802C485.977 775.197 484.289 775.156 482.721 774.686C481.152 774.215 479.773 773.336 478.759 772.16C477.744 770.983 477.14 769.562 477.021 768.075C476.903 766.589 477.276 765.104 478.094 763.809C478.911 762.513 480.137 761.466 481.615 760.798C483.093 760.131 484.757 759.873 486.397 760.058C488.038 760.244 489.58 760.863 490.83 761.839C492.08 762.814 492.98 764.102 493.418 765.539L505.74 805.973C506.093 807.159 506.086 808.408 505.722 809.591C505.358 810.774 504.649 811.848 503.669 812.7C502.304 813.991 500.469 814.795 498.499 814.966C496.53 815.137 494.559 814.662 492.946 813.629C491.333 812.595 490.188 811.073 489.719 809.34C489.25 807.608 489.489 805.781 490.393 804.194L493.557 798.658" stroke="#4A72FF" stroke-width="0.7" stroke-miterlimit="10" stroke-linecap="round"/>
<path d="M491.357 762C491.951 762.339 492.415 762.808 492.697 763.353C492.978 763.898 493.066 764.497 492.95 765.081C492.839 765.605 492.584 766.102 492.205 766.534C491.825 766.967 491.33 767.323 490.757 767.576C490.184 767.829 489.548 767.973 488.897 767.997C488.247 768.02 487.598 767.923 487 767.712" stroke="#4A72FF" stroke-width="0.7" stroke-miterlimit="10" stroke-linecap="round"/>
<path d="M485 782.999C483.709 783.027 482.458 782.633 481.52 781.904C480.583 781.174 480.037 780.168 480.002 779.107C479.967 778.047 480.446 777.018 481.334 776.248C482.222 775.478 483.446 775.029 484.737 775" stroke="#4A72FF" stroke-width="0.7" stroke-miterlimit="10" stroke-linecap="round"/>
<path d="M498 782.421C496.971 781.947 495.795 781.87 494.71 782.206C493.625 782.542 492.712 783.265 492.156 784.229C492.156 784.229 488.546 794.792 484 796" stroke="#4A72FF" stroke-width="0.7" stroke-miterlimit="10" stroke-linecap="round"/>
<path d="M487 802H492" stroke="#4A72FF" stroke-width="0.7" stroke-miterlimit="10" stroke-linecap="round"/>
<path d="M480 789C482.818 789.547 485.522 790.561 488 792" stroke="#4A72FF" stroke-width="0.7" stroke-miterlimit="10" stroke-linecap="round"/>
<path d="M500 806C500.147 805.434 500.525 804.927 501.071 804.563C501.617 804.199 502.298 804 503 804C503.702 804 504.383 804.199 504.929 804.563C505.475 804.927 505.853 805.434 506 806" stroke="#4A72FF" stroke-width="0.7" stroke-miterlimit="10" stroke-linecap="round"/>
<path d="M515 761C517.295 761.572 519.636 763.482 519.766 768.943C519.766 768.943 533.032 775.132 525.887 787.006C525.887 787.006 532.129 798.471 521.618 802" stroke="#4A72FF" stroke-width="0.7" stroke-linecap="round" stroke-linejoin="round"/>
<path d="M503.686 771.05C505.297 770.648 506.741 769.822 507.835 768.677C508.928 767.531 509.623 766.117 509.831 764.614C510.038 763.11 509.75 761.585 509.001 760.23C508.253 758.875 507.078 757.752 505.626 757.003C504.174 756.253 502.51 755.911 500.843 756.02C499.177 756.128 497.583 756.682 496.264 757.612C494.945 758.542 493.959 759.806 493.432 761.244C492.904 762.682 492.859 764.229 493.301 765.69L505.755 806.801C506.128 808.003 506.849 809.093 507.843 809.957C508.838 810.82 510.069 811.426 511.409 811.712C513.336 812.209 515.396 812.059 517.21 811.288C519.024 810.518 520.471 809.18 521.284 807.519C522.097 805.859 522.222 803.988 521.636 802.251C521.05 800.514 519.792 799.027 518.093 798.063L512.176 794.7" stroke="#4A72FF" stroke-width="0.7" stroke-miterlimit="10" stroke-linecap="round"/>
<path d="M493.359 761C493.046 761.593 492.935 762.249 493.037 762.894C493.139 763.539 493.45 764.146 493.935 764.646C494.377 765.091 494.932 765.443 495.556 765.677C496.18 765.911 496.857 766.021 497.537 765.997C498.217 765.973 498.882 765.817 499.482 765.54C500.082 765.263 500.601 764.873 501 764.398" stroke="#4A72FF" stroke-width="0.7" stroke-miterlimit="10" stroke-linecap="round"/>
<path d="M510.932 776C511.395 775.761 511.802 775.44 512.13 775.055C512.459 774.67 512.702 774.229 512.847 773.756C512.992 773.284 513.034 772.79 512.973 772.303C512.911 771.816 512.747 771.344 512.488 770.916C512.23 770.487 511.883 770.11 511.468 769.806C511.052 769.501 510.576 769.276 510.067 769.142C509.557 769.008 509.024 768.968 508.498 769.025C507.971 769.082 507.463 769.235 507 769.474" stroke="#4A72FF" stroke-width="0.7" stroke-miterlimit="10" stroke-linecap="round"/>
<path d="M499 781.985C499.662 781.041 500.673 780.372 501.83 780.116C502.986 779.859 504.201 780.033 505.229 780.602C505.229 780.602 514.262 788.111 519 786.859" stroke="#4A72FF" stroke-width="0.7" stroke-miterlimit="10" stroke-linecap="round"/>
<path d="M520 794L516 796" stroke="#4A72FF" stroke-width="0.7" stroke-miterlimit="10" stroke-linecap="round"/>
<path d="M518 779C515.996 781.002 514.305 783.368 513 786" stroke="#4A72FF" stroke-width="0.7" stroke-miterlimit="10" stroke-linecap="round"/>
<path d="M511 803.721C510.549 803.341 509.947 803.095 509.293 803.022C508.64 802.95 507.974 803.055 507.407 803.322C506.841 803.588 506.407 803.999 506.179 804.487C505.95 804.974 505.941 805.508 506.151 806" stroke="#4A72FF" stroke-width="0.7" stroke-miterlimit="10" stroke-linecap="round"/>
<path d="M628.1 770L623.751 770.954C623.751 770.954 626.467 786.062 628.427 789.287C630.682 792.984 651.856 808.514 652.924 812.722C653.72 815.776 648.072 817.366 645.826 817.899C640.807 819.045 620.811 823.756 615.792 824.554C613.546 824.894 608.121 825.885 607.125 823.038C607.125 822.972 607.085 822.905 607.069 822.839C605.994 818.631 617.816 795.965 617.664 791.697C617.521 787.719 612.988 773.365 612.988 773.365L608.639 774.319" stroke="#4A72FF" stroke-width="0.7" stroke-linecap="round" stroke-linejoin="round"/>
<path d="M614 804L638 799" stroke="#4A72FF" stroke-width="0.7" stroke-linecap="round" stroke-linejoin="round"/>
<path d="M629.028 809.95C629.682 809.808 630.086 809.203 629.932 808.601C629.777 807.998 629.121 807.624 628.467 807.767C627.813 807.91 627.409 808.514 627.563 809.117C627.718 809.72 628.374 810.093 629.028 809.95Z" stroke="#4A72FF" stroke-width="0.7" stroke-miterlimit="10"/>
<path d="M635.878 812.302C636.532 812.159 636.937 811.555 636.782 810.952C636.627 810.349 635.972 809.976 635.318 810.119C634.664 810.261 634.259 810.866 634.414 811.469C634.569 812.072 635.224 812.445 635.878 812.302Z" stroke="#4A72FF" stroke-width="0.7" stroke-miterlimit="10"/>
<path d="M714 759.765L687.55 736.541C683.976 733.402 678.431 733.132 675.221 735.95C672.011 738.769 672.319 743.637 675.894 746.776L702.344 770" stroke="#4A72FF" stroke-width="0.7" stroke-linecap="round" stroke-linejoin="round"/>
<path d="M704.464 768.75L702.656 770.346C702.236 770.72 702 771.225 702 771.751C702 772.278 702.236 772.783 702.656 773.157L702.959 773.424C703.383 773.793 703.955 774 704.551 774C705.147 774 705.719 773.793 706.144 773.424L718.344 762.657C718.764 762.283 719 761.778 719 761.252C719 760.725 718.764 760.22 718.344 759.846L718.041 759.579C717.618 759.208 717.045 759 716.449 759C715.852 759 715.28 759.208 714.856 759.579L707.999 765.651" stroke="#4A72FF" stroke-width="0.7" stroke-linecap="round" stroke-linejoin="round"/>
<path d="M707 754H690" stroke="#4A72FF" stroke-width="0.7" stroke-linecap="round" stroke-linejoin="round"/>
<path d="M708 771.793L713.638 777L722 769.278L716.286 764" stroke="#4A72FF" stroke-width="0.7" stroke-linejoin="round"/>
<path d="M691.161 745.89C691.405 746.104 691.404 746.449 691.161 746.663C690.917 746.876 690.523 746.875 690.279 746.662C690.036 746.449 690.036 746.103 690.28 745.89C690.523 745.677 690.918 745.677 691.161 745.89Z" stroke="#4A72FF" stroke-width="0.7" stroke-miterlimit="10"/>
<path d="M684.089 743.775C684.332 743.989 684.332 744.334 684.089 744.547C683.845 744.76 683.45 744.76 683.207 744.547C682.964 744.334 682.964 743.988 683.208 743.775C683.451 743.562 683.846 743.562 684.089 743.775Z" stroke="#4A72FF" stroke-width="0.7" stroke-miterlimit="10"/>
<path d="M744 675.666L732.299 677.382L739.68 686.048L727.192 695.349L720.011 686.928L715.953 697L701.012 691.737L705.193 681.362L693.476 683.078L691 668.334L702.701 666.618L695.32 657.952L707.808 648.651L714.982 657.072L719.047 647L733.988 652.263L729.799 662.638L741.524 660.922L744 675.666Z" stroke="#4A72FF" stroke-width="0.7" stroke-linecap="round" stroke-linejoin="round"/>
<path d="M721 663L724 656" stroke="#4A72FF" stroke-width="0.7" stroke-linecap="round" stroke-linejoin="round"/>
<path d="M715 677L719 667" stroke="#4A72FF" stroke-width="0.7" stroke-linecap="round" stroke-linejoin="round"/>
<path d="M712 686L714 681" stroke="#4A72FF" stroke-width="0.7" stroke-linecap="round" stroke-linejoin="round"/>
<path d="M720.502 673C723.108 672.942 725.052 672.332 722.622 670.094C720.684 668.689 718.841 667.18 717.1 665.575C717.1 665.575 713.379 661.797 719.626 660.62C719.626 660.62 722.255 659.894 726 659" stroke="#4A72FF" stroke-width="0.7" stroke-linecap="round" stroke-linejoin="round"/>
<path d="M719 682C719 682 712.189 681.793 710.467 677.917C710.467 677.917 708.422 673.587 712.889 673" stroke="#4A72FF" stroke-width="0.7" stroke-linecap="round" stroke-linejoin="round"/>
<path d="M711.746 685.973C712.42 686.209 712.761 686.908 712.507 687.535C712.253 688.161 711.501 688.478 710.827 688.242C710.153 688.006 709.812 687.307 710.066 686.68C710.32 686.054 711.072 685.737 711.746 685.973Z" stroke="#4A72FF" stroke-width="0.7" stroke-miterlimit="10"/>
<path d="M736.266 582.212C737.241 581.832 738.293 581.635 739.357 581.635C740.422 581.635 741.474 581.832 742.449 582.212L746.522 583.805C746.818 583.925 747.139 583.991 747.464 583.999C747.79 584.007 748.114 583.958 748.417 583.853C748.721 583.749 748.998 583.591 749.232 583.39C749.466 583.189 749.653 582.948 749.781 582.682C749.915 582.419 749.99 582.134 749.999 581.845C750.008 581.555 749.953 581.267 749.835 580.997C749.717 580.728 749.54 580.481 749.314 580.273C749.088 580.065 748.817 579.899 748.518 579.785L744.445 578.192C743.471 577.809 742.596 577.251 741.877 576.553C741.158 575.855 740.609 575.032 740.266 574.135C739.98 573.402 739.525 572.729 738.93 572.16C738.336 571.592 737.614 571.139 736.812 570.833L697.791 555.528C696.953 555.199 696.05 555.02 695.134 555.002C694.218 554.983 693.307 555.125 692.453 555.42C691.599 555.714 690.818 556.156 690.156 556.719C689.494 557.282 688.963 557.955 688.594 558.7C688.224 559.446 688.023 560.248 688.002 561.063C687.981 561.877 688.141 562.687 688.472 563.447C688.803 564.206 689.3 564.9 689.933 565.489C690.566 566.077 691.323 566.549 692.162 566.878L731.223 582.197C732.017 582.509 732.875 582.671 733.743 582.674C734.611 582.676 735.47 582.519 736.266 582.212Z" stroke="#4A72FF" stroke-width="0.7" stroke-miterlimit="10" stroke-linecap="square"/>
<path d="M742 582V581" stroke="#4A72FF" stroke-width="0.7" stroke-miterlimit="10" stroke-linecap="square"/>
<path d="M734.275 576.936C734.677 576.111 734.264 575.147 733.353 574.782C732.441 574.418 731.376 574.792 730.974 575.617C730.572 576.442 730.985 577.406 731.896 577.771C732.808 578.135 733.872 577.761 734.275 576.936Z" stroke="#4A72FF" stroke-width="0.7" stroke-miterlimit="10"/>
<path d="M731 576L700 563" stroke="#4A72FF" stroke-width="0.7" stroke-miterlimit="10" stroke-linecap="square"/>
<path d="M727 581L728 579" stroke="#4A72FF" stroke-width="0.7" stroke-miterlimit="10" stroke-linecap="square"/>
<path d="M722 579L723 577" stroke="#4A72FF" stroke-width="0.7" stroke-miterlimit="10" stroke-linecap="square"/>
<path d="M718 577L719 575" stroke="#4A72FF" stroke-width="0.7" stroke-miterlimit="10" stroke-linecap="square"/>
<path d="M714 576L715 574" stroke="#4A72FF" stroke-width="0.7" stroke-miterlimit="10" stroke-linecap="square"/>
<path d="M710 574L711 572" stroke="#4A72FF" stroke-width="0.7" stroke-miterlimit="10" stroke-linecap="square"/>
<path d="M706 572L707 570" stroke="#4A72FF" stroke-width="0.7" stroke-miterlimit="10" stroke-linecap="square"/>
<path d="M702 571L703 569" stroke="#4A72FF" stroke-width="0.7" stroke-miterlimit="10" stroke-linecap="square"/>
<path d="M698 569L699 567" stroke="#4A72FF" stroke-width="0.7" stroke-miterlimit="10" stroke-linecap="square"/>
<path d="M697 563V561" stroke="#4A72FF" stroke-width="0.7" stroke-miterlimit="10" stroke-linecap="square"/>
<path d="M98.2659 65.2115C99.2406 64.8315 100.293 64.6353 101.357 64.6353C102.422 64.6353 103.474 64.8315 104.449 65.2115L108.522 66.805C108.818 66.9248 109.139 66.9908 109.464 66.9991C109.79 67.0074 110.114 66.9578 110.417 66.8532C110.721 66.7486 110.998 66.5912 111.232 66.3901C111.466 66.189 111.653 65.9484 111.781 65.6823C111.915 65.4188 111.99 65.1341 111.999 64.8448C112.008 64.5554 111.953 64.2674 111.835 63.9975C111.717 63.7276 111.54 63.4813 111.314 63.2731C111.088 63.0649 110.817 62.899 110.518 62.7851L106.445 61.1916C105.471 60.8093 104.596 60.2514 103.877 59.5532C103.158 58.855 102.609 58.0318 102.266 57.1355C101.98 56.4017 101.525 55.7289 100.93 55.1602C100.336 54.5915 99.6141 54.1394 98.8117 53.8326L59.791 38.5279C58.9528 38.199 58.05 38.0202 57.1341 38.0016C56.2182 37.983 55.3071 38.1251 54.453 38.4198C53.5989 38.7144 52.8185 39.1558 52.1563 39.7187C51.4941 40.2816 50.9631 40.955 50.5938 41.7004C50.2238 42.4456 50.0227 43.2483 50.0018 44.0627C49.9809 44.8771 50.1407 45.6871 50.4721 46.4465C50.8034 47.2059 51.2999 47.8999 51.933 48.4886C52.5661 49.0774 53.3235 49.5495 54.1619 49.8779L93.2234 65.197C94.0172 65.5091 94.8751 65.6715 95.743 65.674C96.6109 65.6765 97.4699 65.519 98.2659 65.2115Z" stroke="#4A72FF" stroke-width="0.7" stroke-miterlimit="10" stroke-linecap="square"/>
<path d="M104 65V64" stroke="#4A72FF" stroke-width="0.7" stroke-miterlimit="10" stroke-linecap="square"/>
<path d="M96.2746 59.9358C96.6767 59.1107 96.2639 58.1465 95.3526 57.7824C94.4412 57.4183 93.3764 57.7921 92.9742 58.6173C92.5721 59.4424 92.9849 60.4065 93.8962 60.7706C94.8076 61.1347 95.8724 60.761 96.2746 59.9358Z" stroke="#4A72FF" stroke-width="0.7" stroke-miterlimit="10"/>
<path d="M93 59L62 46" stroke="#4A72FF" stroke-width="0.7" stroke-miterlimit="10" stroke-linecap="square"/>
<path d="M89 64L90 62" stroke="#4A72FF" stroke-width="0.7" stroke-miterlimit="10" stroke-linecap="square"/>
<path d="M84 62L85 60" stroke="#4A72FF" stroke-width="0.7" stroke-miterlimit="10" stroke-linecap="square"/>
<path d="M80 60L81 58" stroke="#4A72FF" stroke-width="0.7" stroke-miterlimit="10" stroke-linecap="square"/>
<path d="M76 59L77 57" stroke="#4A72FF" stroke-width="0.7" stroke-miterlimit="10" stroke-linecap="square"/>
<path d="M72 57L73 55" stroke="#4A72FF" stroke-width="0.7" stroke-miterlimit="10" stroke-linecap="square"/>
<path d="M68 55L69 53" stroke="#4A72FF" stroke-width="0.7" stroke-miterlimit="10" stroke-linecap="square"/>
<path d="M64 54L65 52" stroke="#4A72FF" stroke-width="0.7" stroke-miterlimit="10" stroke-linecap="square"/>
<path d="M60 52L61 50" stroke="#4A72FF" stroke-width="0.7" stroke-miterlimit="10" stroke-linecap="square"/>
<path d="M59 46V44" stroke="#4A72FF" stroke-width="0.7" stroke-miterlimit="10" stroke-linecap="square"/>
<path d="M688.117 519.94C685.268 521.386 681.821 521.557 678.53 520.415C675.239 519.274 672.372 516.913 670.557 513.849L654.402 486.504C652.598 483.435 651.996 479.917 652.728 476.722C653.46 473.527 655.466 470.915 658.307 469.457C661.156 468.011 664.603 467.84 667.894 468.981C671.185 470.123 674.052 472.484 675.867 475.548L692.05 502.922C693.843 505.992 694.436 509.504 693.699 512.692C692.962 515.881 690.955 518.486 688.117 519.94Z" stroke="#4A72FF" stroke-width="0.7" stroke-linecap="round" stroke-linejoin="round"/>
<path d="M662.81 500.446L683.616 488.952" stroke="#4A72FF" stroke-width="0.7" stroke-linecap="round" stroke-linejoin="round"/>
<path d="M658.312 482.648C655.994 478.567 657.813 475.168 660.243 474.518" stroke="#4A72FF" stroke-width="0.7" stroke-linecap="round" stroke-linejoin="round"/>
<path d="M681.986 497.398L686.736 505.3" stroke="#4A72FF" stroke-width="0.7" stroke-linecap="round" stroke-linejoin="round"/>
<path d="M654 364.895C654.307 362.373 655.498 360.023 657.38 358.227C659.683 356.125 662.757 354.967 665.943 355.001C669.13 355.035 672.176 356.258 674.429 358.409C676.682 360.56 677.964 363.467 677.999 366.509C678.035 369.55 676.822 372.484 674.619 374.682C673.281 375.956 671.644 376.908 669.845 377.458C668.045 378.009 666.134 378.142 664.269 377.847" stroke="#4A72FF" stroke-width="0.7" stroke-miterlimit="10"/>
<path d="M674 358L662 370" stroke="#4A72FF" stroke-width="0.7" stroke-miterlimit="10"/>
<path d="M651.5 387C658.404 387 664 382.075 664 376C664 369.925 658.404 365 651.5 365C644.596 365 639 369.925 639 376C639 382.075 644.596 387 651.5 387Z" stroke="#4A72FF" stroke-width="0.7" stroke-miterlimit="10"/>
<path d="M651 365V387" stroke="#4A72FF" stroke-width="0.7" stroke-miterlimit="10"/>
<path d="M736 261.613L697.272 294L688 284.387L726.712 252L736 261.613Z" stroke="#4A72FF" stroke-width="0.7" stroke-miterlimit="10" stroke-linecap="square"/>
<path d="M738.944 257.186L735.035 260.039L729.056 253.814L732.956 250.961L738.944 257.186Z" stroke="#4A72FF" stroke-width="0.7" stroke-miterlimit="10" stroke-linecap="square"/>
<path d="M727.497 279C729.842 282.813 730.573 287.317 729.546 291.615C728.724 295.595 726.584 299.227 723.431 301.991C720.279 304.755 716.277 306.509 712 307" stroke="#4A72FF" stroke-width="0.7" stroke-miterlimit="10" stroke-linecap="square"/>
<path d="M731.704 273C736.279 277.641 738.126 283.723 736.31 292.726C735.298 297.758 732.724 302.382 728.924 305.998C725.123 309.614 720.272 312.054 715 313" stroke="#4A72FF" stroke-width="0.7" stroke-miterlimit="10" stroke-linecap="square"/>
<path d="M700.409 301.379L696.343 320.974L707.832 323.031L711.897 303.436L700.409 301.379Z" stroke="#4A72FF" stroke-width="0.7" stroke-miterlimit="10" stroke-linecap="square"/>
<path d="M698 308L686 299" stroke="#4A72FF" stroke-width="0.7" stroke-miterlimit="10" stroke-linecap="square"/>
<path d="M713 307L734 310" stroke="#4A72FF" stroke-width="0.7" stroke-miterlimit="10" stroke-linecap="square"/>
<path d="M731.748 272.096C732.406 268.924 730.171 265.857 726.756 265.245C723.341 264.634 720.039 266.71 719.381 269.882C718.723 273.054 720.958 276.121 724.373 276.732C727.787 277.343 731.089 275.268 731.748 272.096Z" stroke="#4A72FF" stroke-width="0.7" stroke-miterlimit="10" stroke-linecap="square"/>
<path d="M691.038 110C690.73 116.042 692.142 124.574 700.501 131.223C715.019 142.765 708.575 160 708.575 160" stroke="#4A72FF" stroke-width="0.7" stroke-miterlimit="10" stroke-linecap="square"/>
<path d="M692 103C691.44 105.251 691.103 107.609 691 110" stroke="#4A72FF" stroke-width="0.7" stroke-miterlimit="10" stroke-linecap="square"/>
<path d="M695 132C680.185 135.845 675 150 675 150" stroke="#4A72FF" stroke-width="0.7" stroke-miterlimit="10" stroke-linecap="square"/>
<path d="M726 113C726 113 720.84 126.482 706 130" stroke="#4A72FF" stroke-width="0.7" stroke-miterlimit="10" stroke-linecap="square"/>
<path d="M722 118L708 114" stroke="#4A72FF" stroke-width="0.7" stroke-miterlimit="10" stroke-linecap="square"/>
<path d="M717 123L706 120" stroke="#4A72FF" stroke-width="0.7" stroke-miterlimit="10" stroke-linecap="square"/>
<path d="M712 127L704 124" stroke="#4A72FF" stroke-width="0.7" stroke-miterlimit="10" stroke-linecap="square"/>
<path d="M680 144L694 148" stroke="#4A72FF" stroke-width="0.7" stroke-miterlimit="10" stroke-linecap="square"/>
<path d="M684 139L696 143" stroke="#4A72FF" stroke-width="0.7" stroke-miterlimit="10" stroke-linecap="square"/>
<path d="M690 135L698 137" stroke="#4A72FF" stroke-width="0.7" stroke-miterlimit="10" stroke-linecap="square"/>
<path d="M674.596 66.1119L627.908 56.9464C626.302 56.6311 625.283 55.2011 625.633 53.7525L633.146 22.623C633.496 21.1744 635.081 20.2556 636.687 20.5709L683.375 29.7364C684.981 30.0518 686 31.4817 685.65 32.9304L678.137 64.0599C677.787 65.5085 676.202 66.4273 674.596 66.1119Z" stroke="#4A72FF" stroke-width="0.7" stroke-miterlimit="10" stroke-linecap="square"/>
<path d="M643.846 60.9126L642.861 64.7427C642.591 65.7739 643.719 66.8586 645.372 67.1666L654.468 68.8339C656.12 69.1352 657.646 68.546 657.939 67.4947L658.821 63.9057" stroke="#4A72FF" stroke-width="0.7" stroke-miterlimit="10" stroke-linecap="square"/>
<path d="M626.821 47.9126L678.821 57.9126" stroke="#4A72FF" stroke-width="0.7" stroke-miterlimit="10" stroke-linecap="square"/>
<path d="M662.707 43.6994L658.313 42.8088L657.359 46.9126L652.262 45.8795L653.216 41.7757L648.821 40.878L649.935 36.1187L654.33 37.0164L655.284 32.9126L660.38 33.9457L659.427 38.0495L663.821 38.9401L662.707 43.6994Z" stroke="#4A72FF" stroke-width="0.7" stroke-miterlimit="10" stroke-linecap="square"/>
<path d="M543.324 97.6597L514 85.5847L536.245 40L565.569 52.0749L543.324 97.6597Z" stroke="#4A72FF" stroke-width="0.7" stroke-miterlimit="10" stroke-linecap="square"/>
<path d="M532.375 48.4389L556.365 58.7143" stroke="#4A72FF" stroke-width="0.7" stroke-miterlimit="10" stroke-linecap="square"/>
<path d="M543.366 61.4748C548.433 63.5612 550.699 69.0259 548.428 73.6804C546.156 78.3349 540.207 80.4168 535.14 78.3303C530.073 76.2439 527.807 70.7793 530.078 66.1247C532.35 61.4702 538.299 59.3883 543.366 61.4748Z" stroke="#4A72FF" stroke-width="0.7" stroke-miterlimit="10" stroke-linecap="square"/>
<path d="M538.007 71.9912L539.24 67.5975" stroke="#4A72FF" stroke-width="0.7" stroke-miterlimit="10" stroke-linecap="square"/>
<path d="M541.658 70.3535L536.045 69" stroke="#4A72FF" stroke-width="0.7" stroke-miterlimit="10" stroke-linecap="square"/>
<path d="M444.038 12C443.73 18.0415 445.142 26.5738 453.501 33.2231C468.019 44.765 461.575 62 461.575 62" stroke="#4A72FF" stroke-width="0.7" stroke-miterlimit="10" stroke-linecap="square"/>
<path d="M445 5C444.44 7.25148 444.103 9.60873 444 12" stroke="#4A72FF" stroke-width="0.7" stroke-miterlimit="10" stroke-linecap="square"/>
<path d="M448 34C433.185 37.8445 428 52 428 52" stroke="#4A72FF" stroke-width="0.7" stroke-miterlimit="10" stroke-linecap="square"/>
<path d="M479 15C479 15 473.84 28.4815 459 32" stroke="#4A72FF" stroke-width="0.7" stroke-miterlimit="10" stroke-linecap="square"/>
<path d="M475 20L461 16" stroke="#4A72FF" stroke-width="0.7" stroke-miterlimit="10" stroke-linecap="square"/>
<path d="M470 25L459 22" stroke="#4A72FF" stroke-width="0.7" stroke-miterlimit="10" stroke-linecap="square"/>
<path d="M465 29L457 26" stroke="#4A72FF" stroke-width="0.7" stroke-miterlimit="10" stroke-linecap="square"/>
<path d="M433 46L447 50" stroke="#4A72FF" stroke-width="0.7" stroke-miterlimit="10" stroke-linecap="square"/>
<path d="M437 41L449 45" stroke="#4A72FF" stroke-width="0.7" stroke-miterlimit="10" stroke-linecap="square"/>
<path d="M443 37L451 39" stroke="#4A72FF" stroke-width="0.7" stroke-miterlimit="10" stroke-linecap="square"/>
<path d="M267 1L270 5" stroke="#4A72FF" stroke-width="0.7" stroke-linecap="round" stroke-linejoin="round"/>
<path d="M258 15H263" stroke="#4A72FF" stroke-width="0.7" stroke-linecap="round" stroke-linejoin="round"/>
<path d="M267 29L270 26" stroke="#4A72FF" stroke-width="0.7" stroke-linecap="round" stroke-linejoin="round"/>
<path d="M285 1L283 5" stroke="#4A72FF" stroke-width="0.7" stroke-linecap="round" stroke-linejoin="round"/>
<path d="M269.5 5L263 15.4964L269.5 26H282.5L289 15.4964L282.5 5H269.5Z" stroke="#4A72FF" stroke-width="0.7" stroke-linecap="round" stroke-linejoin="round"/>
<path d="M273 10H279" stroke="#4A72FF" stroke-width="0.7" stroke-linecap="round" stroke-linejoin="round"/>
<path d="M272 21L269 15" stroke="#4A72FF" stroke-width="0.7" stroke-linecap="round" stroke-linejoin="round"/>
<path d="M305 40L302 36" stroke="#4A72FF" stroke-width="0.7" stroke-linecap="round" stroke-linejoin="round"/>
<path d="M314 25H309" stroke="#4A72FF" stroke-width="0.7" stroke-linecap="round" stroke-linejoin="round"/>
<path d="M305 11L302 15" stroke="#4A72FF" stroke-width="0.7" stroke-linecap="round" stroke-linejoin="round"/>
<path d="M287 40L289 36" stroke="#4A72FF" stroke-width="0.7" stroke-linecap="round" stroke-linejoin="round"/>
<path d="M302.5 36L309 25.5L302.5 15H289.5L283 25.5L289.5 36H302.5Z" stroke="#4A72FF" stroke-width="0.7" stroke-linecap="round" stroke-linejoin="round"/>
<path d="M303 26L299 31" stroke="#4A72FF" stroke-width="0.7" stroke-linecap="round" stroke-linejoin="round"/>
<path d="M292 20H299" stroke="#4A72FF" stroke-width="0.7" stroke-linecap="round" stroke-linejoin="round"/>
<path d="M167.843 58.0931L179.021 40L205.088 54.2647C206.629 55.0226 207.991 56.0672 209.092 57.3355C210.193 58.6038 211.01 60.0693 211.493 61.6436C211.976 63.2179 212.116 64.8682 211.904 66.4948C211.691 68.1214 211.131 69.6905 210.258 71.1073C209.384 72.5241 208.214 73.7591 206.82 74.7378C205.426 75.7165 203.836 76.4185 202.145 76.8013C200.455 77.1842 198.7 77.2399 196.987 76.9653C195.273 76.6906 193.636 76.0912 192.175 75.2033L188.286 73.0911L186.053 76.7581C184.541 79.336 182.083 81.305 179.141 82.2956C176.199 83.2862 172.974 83.2303 170.072 82.1383C167.17 81.0463 164.791 78.9934 163.381 76.3648C161.971 73.7363 161.627 70.7128 162.413 67.862" stroke="#4A72FF" stroke-width="0.7" stroke-linecap="round" stroke-linejoin="round"/>
<path d="M158 64.6644L172.19 61.3493L176.757 64.5754L178.94 55L187.414 67L188.361 57.5L194 56.1849" stroke="#4A72FF" stroke-width="0.7" stroke-linecap="round" stroke-linejoin="round"/>
<path d="M346.784 88L383.473 73.1758C383.781 73.0517 384.059 72.8732 384.292 72.6507C384.524 72.4281 384.706 72.1658 384.828 71.8787C384.949 71.5916 385.007 71.2855 384.999 70.9778C384.991 70.6701 384.917 70.3669 384.78 70.0855L381.067 62.3965C380.932 62.1148 380.737 61.8604 380.493 61.6478C380.25 61.4352 379.963 61.2686 379.649 61.1575C379.336 61.0465 379.001 60.9932 378.665 61.0007C378.328 61.0082 377.997 61.0763 377.689 61.2012L341 76.0255L346.784 88Z" stroke="#4A72FF" stroke-width="0.7" stroke-miterlimit="10" stroke-linecap="square"/>
<path d="M345 84.9672L342.586 80L335 83.0399L337.422 88L341.945 86.186" stroke="#4A72FF" stroke-width="0.7" stroke-miterlimit="10" stroke-linecap="square"/>
<path d="M382 63.5407L384.661 69L391 66.4593L388.339 61L385.023 62.3298" stroke="#4A72FF" stroke-width="0.7" stroke-miterlimit="10" stroke-linecap="square"/>
<path d="M389 64L399 60" stroke="#4A72FF" stroke-width="0.7" stroke-miterlimit="10" stroke-linecap="square"/>
<path d="M373 63L375 66" stroke="#4A72FF" stroke-width="0.7" stroke-miterlimit="10" stroke-linecap="square"/>
<path d="M368 65L370 68" stroke="#4A72FF" stroke-width="0.7" stroke-miterlimit="10" stroke-linecap="square"/>
<path d="M363 67L365 70" stroke="#4A72FF" stroke-width="0.7" stroke-miterlimit="10" stroke-linecap="square"/>
<path d="M358 69L360 72" stroke="#4A72FF" stroke-width="0.7" stroke-miterlimit="10" stroke-linecap="square"/>
<path d="M353 71L355 74" stroke="#4A72FF" stroke-width="0.7" stroke-miterlimit="10" stroke-linecap="square"/>
<path d="M349 73L350 76" stroke="#4A72FF" stroke-width="0.7" stroke-miterlimit="10" stroke-linecap="square"/>
<path d="M332.561 79.2021L338.438 90.7977" stroke="#4A72FF" stroke-width="0.7" stroke-miterlimit="10" stroke-linecap="square"/>
<path d="M454 100.895C454.307 98.3726 455.498 96.0229 457.38 94.2272C459.683 92.1249 462.757 90.9668 465.943 91.0007C469.13 91.0347 472.176 92.258 474.429 94.4088C476.682 96.5597 477.964 99.4671 477.999 102.509C478.035 105.55 476.822 108.484 474.619 110.682C473.281 111.956 471.644 112.908 469.845 113.458C468.045 114.009 466.134 114.142 464.269 113.847" stroke="#4A72FF" stroke-width="0.7" stroke-miterlimit="10"/>
<path d="M474 94L462 106" stroke="#4A72FF" stroke-width="0.7" stroke-miterlimit="10"/>
<path d="M451.5 123C458.404 123 464 118.075 464 112C464 105.925 458.404 101 451.5 101C444.596 101 439 105.925 439 112C439 118.075 444.596 123 451.5 123Z" stroke="#4A72FF" stroke-width="0.7" stroke-miterlimit="10"/>
<path d="M451 101V123" stroke="#4A72FF" stroke-width="0.7" stroke-miterlimit="10"/>
<path d="M305 110.666L293.299 112.382L300.68 121.048L288.192 130.349L281.011 121.928L276.953 132L262.012 126.737L266.193 116.362L254.476 118.078L252 103.334L263.701 101.618L256.32 92.9517L268.808 83.6511L275.982 92.0721L280.047 82L294.988 87.2631L290.799 97.6381L302.524 95.9221L305 110.666Z" stroke="#4A72FF" stroke-width="0.7" stroke-linecap="round" stroke-linejoin="round"/>
<path d="M282 98L285 91" stroke="#4A72FF" stroke-width="0.7" stroke-linecap="round" stroke-linejoin="round"/>
<path d="M276 112L280 102" stroke="#4A72FF" stroke-width="0.7" stroke-linecap="round" stroke-linejoin="round"/>
<path d="M273 121L275 116" stroke="#4A72FF" stroke-width="0.7" stroke-linecap="round" stroke-linejoin="round"/>
<path d="M281.502 108C284.108 107.942 286.052 107.332 283.622 105.094C281.684 103.689 279.841 102.18 278.1 100.575C278.1 100.575 274.379 96.7971 280.626 95.6201C280.626 95.6201 283.255 94.8936 287 94" stroke="#4A72FF" stroke-width="0.7" stroke-linecap="round" stroke-linejoin="round"/>
<path d="M280 117C280 117 273.189 116.793 271.467 112.917C271.467 112.917 269.422 108.587 273.889 108" stroke="#4A72FF" stroke-width="0.7" stroke-linecap="round" stroke-linejoin="round"/>
<path d="M272.746 120.973C273.42 121.209 273.761 121.908 273.507 122.535C273.253 123.161 272.501 123.478 271.827 123.242C271.153 123.006 270.812 122.307 271.066 121.68C271.32 121.054 272.072 120.737 272.746 120.973Z" stroke="#4A72FF" stroke-width="0.7" stroke-miterlimit="10"/>
<path d="M108 210L111 214" stroke="#4A72FF" stroke-width="0.7" stroke-linecap="round" stroke-linejoin="round"/>
<path d="M99 224H104" stroke="#4A72FF" stroke-width="0.7" stroke-linecap="round" stroke-linejoin="round"/>
<path d="M108 238L111 235" stroke="#4A72FF" stroke-width="0.7" stroke-linecap="round" stroke-linejoin="round"/>
<path d="M126 210L124 214" stroke="#4A72FF" stroke-width="0.7" stroke-linecap="round" stroke-linejoin="round"/>
<path d="M110.5 214L104 224.496L110.5 235H123.5L130 224.496L123.5 214H110.5Z" stroke="#4A72FF" stroke-width="0.7" stroke-linecap="round" stroke-linejoin="round"/>
<path d="M114 219H120" stroke="#4A72FF" stroke-width="0.7" stroke-linecap="round" stroke-linejoin="round"/>
<path d="M113 230L110 224" stroke="#4A72FF" stroke-width="0.7" stroke-linecap="round" stroke-linejoin="round"/>
<path d="M146 249L143 245" stroke="#4A72FF" stroke-width="0.7" stroke-linecap="round" stroke-linejoin="round"/>
<path d="M155 234H150" stroke="#4A72FF" stroke-width="0.7" stroke-linecap="round" stroke-linejoin="round"/>
<path d="M146 220L143 224" stroke="#4A72FF" stroke-width="0.7" stroke-linecap="round" stroke-linejoin="round"/>
<path d="M128 249L130 245" stroke="#4A72FF" stroke-width="0.7" stroke-linecap="round" stroke-linejoin="round"/>
<path d="M143.5 245L150 234.5L143.5 224H130.5L124 234.5L130.5 245H143.5Z" stroke="#4A72FF" stroke-width="0.7" stroke-linecap="round" stroke-linejoin="round"/>
<path d="M144 235L140 240" stroke="#4A72FF" stroke-width="0.7" stroke-linecap="round" stroke-linejoin="round"/>
<path d="M133 229H140" stroke="#4A72FF" stroke-width="0.7" stroke-linecap="round" stroke-linejoin="round"/>
<path d="M405.038 712C404.73 718.042 406.142 726.574 414.501 733.223C429.019 744.765 422.575 762 422.575 762" stroke="#4A72FF" stroke-width="0.7" stroke-miterlimit="10" stroke-linecap="square"/>
<path d="M406 705C405.44 707.251 405.103 709.609 405 712" stroke="#4A72FF" stroke-width="0.7" stroke-miterlimit="10" stroke-linecap="square"/>
<path d="M409 734C394.185 737.845 389 752 389 752" stroke="#4A72FF" stroke-width="0.7" stroke-miterlimit="10" stroke-linecap="square"/>
<path d="M440 715C440 715 434.84 728.482 420 732" stroke="#4A72FF" stroke-width="0.7" stroke-miterlimit="10" stroke-linecap="square"/>
<path d="M436 720L422 716" stroke="#4A72FF" stroke-width="0.7" stroke-miterlimit="10" stroke-linecap="square"/>
<path d="M431 725L420 722" stroke="#4A72FF" stroke-width="0.7" stroke-miterlimit="10" stroke-linecap="square"/>
<path d="M426 729L418 726" stroke="#4A72FF" stroke-width="0.7" stroke-miterlimit="10" stroke-linecap="square"/>
<path d="M394 746L408 750" stroke="#4A72FF" stroke-width="0.7" stroke-miterlimit="10" stroke-linecap="square"/>
<path d="M398 741L410 745" stroke="#4A72FF" stroke-width="0.7" stroke-miterlimit="10" stroke-linecap="square"/>
<path d="M404 737L412 739" stroke="#4A72FF" stroke-width="0.7" stroke-miterlimit="10" stroke-linecap="square"/>
<path d="M150.596 681.112L103.908 671.946C102.302 671.631 101.283 670.201 101.633 668.752L109.146 637.623C109.496 636.174 111.081 635.256 112.687 635.571L159.375 644.736C160.981 645.052 162 646.482 161.65 647.93L154.137 679.06C153.787 680.509 152.202 681.427 150.596 681.112Z" stroke="#4A72FF" stroke-width="0.7" stroke-miterlimit="10" stroke-linecap="square"/>
<path d="M119.846 675.913L118.861 679.743C118.591 680.774 119.719 681.859 121.372 682.167L130.468 683.834C132.12 684.135 133.646 683.546 133.939 682.495L134.821 678.906" stroke="#4A72FF" stroke-width="0.7" stroke-miterlimit="10" stroke-linecap="square"/>
<path d="M102.821 662.913L154.821 672.913" stroke="#4A72FF" stroke-width="0.7" stroke-miterlimit="10" stroke-linecap="square"/>
<path d="M138.707 658.699L134.313 657.809L133.359 661.913L128.262 660.88L129.216 656.776L124.821 655.878L125.935 651.119L130.33 652.016L131.284 647.913L136.38 648.946L135.427 653.049L139.821 653.94L138.707 658.699Z" stroke="#4A72FF" stroke-width="0.7" stroke-miterlimit="10" stroke-linecap="square"/>
<path d="M700.784 432L737.473 417.176C737.781 417.052 738.059 416.873 738.292 416.651C738.524 416.428 738.706 416.166 738.828 415.879C738.949 415.592 739.007 415.285 738.999 414.978C738.991 414.67 738.917 414.367 738.78 414.086L735.067 406.396C734.932 406.115 734.737 405.86 734.493 405.648C734.25 405.435 733.963 405.269 733.649 405.158C733.336 405.046 733.001 404.993 732.665 405.001C732.328 405.008 731.997 405.076 731.689 405.201L695 420.025L700.784 432Z" stroke="#4A72FF" stroke-width="0.7" stroke-miterlimit="10" stroke-linecap="square"/>
<path d="M699 428.967L696.586 424L689 427.04L691.422 432L695.945 430.186" stroke="#4A72FF" stroke-width="0.7" stroke-miterlimit="10" stroke-linecap="square"/>
<path d="M736 407.541L738.661 413L745 410.459L742.339 405L739.023 406.33" stroke="#4A72FF" stroke-width="0.7" stroke-miterlimit="10" stroke-linecap="square"/>
<path d="M743 408L753 404" stroke="#4A72FF" stroke-width="0.7" stroke-miterlimit="10" stroke-linecap="square"/>
<path d="M727 407L729 410" stroke="#4A72FF" stroke-width="0.7" stroke-miterlimit="10" stroke-linecap="square"/>
<path d="M722 409L724 412" stroke="#4A72FF" stroke-width="0.7" stroke-miterlimit="10" stroke-linecap="square"/>
<path d="M717 411L719 414" stroke="#4A72FF" stroke-width="0.7" stroke-miterlimit="10" stroke-linecap="square"/>
<path d="M712 413L714 416" stroke="#4A72FF" stroke-width="0.7" stroke-miterlimit="10" stroke-linecap="square"/>
<path d="M707 415L709 418" stroke="#4A72FF" stroke-width="0.7" stroke-miterlimit="10" stroke-linecap="square"/>
<path d="M703 417L704 420" stroke="#4A72FF" stroke-width="0.7" stroke-miterlimit="10" stroke-linecap="square"/>
<path d="M686.561 423.202L692.438 434.798" stroke="#4A72FF" stroke-width="0.7" stroke-miterlimit="10" stroke-linecap="square"/>
<path d="M600 93L603 97" stroke="#4A72FF" stroke-width="0.7" stroke-linecap="round" stroke-linejoin="round"/>
<path d="M591 107H596" stroke="#4A72FF" stroke-width="0.7" stroke-linecap="round" stroke-linejoin="round"/>
<path d="M600 121L603 118" stroke="#4A72FF" stroke-width="0.7" stroke-linecap="round" stroke-linejoin="round"/>
<path d="M618 93L616 97" stroke="#4A72FF" stroke-width="0.7" stroke-linecap="round" stroke-linejoin="round"/>
<path d="M602.5 97L596 107.496L602.5 118H615.5L622 107.496L615.5 97H602.5Z" stroke="#4A72FF" stroke-width="0.7" stroke-linecap="round" stroke-linejoin="round"/>
<path d="M606 102H612" stroke="#4A72FF" stroke-width="0.7" stroke-linecap="round" stroke-linejoin="round"/>
<path d="M605 113L602 107" stroke="#4A72FF" stroke-width="0.7" stroke-linecap="round" stroke-linejoin="round"/>
<path d="M638 132L635 128" stroke="#4A72FF" stroke-width="0.7" stroke-linecap="round" stroke-linejoin="round"/>
<path d="M647 117H642" stroke="#4A72FF" stroke-width="0.7" stroke-linecap="round" stroke-linejoin="round"/>
<path d="M638 103L635 107" stroke="#4A72FF" stroke-width="0.7" stroke-linecap="round" stroke-linejoin="round"/>
<path d="M620 132L622 128" stroke="#4A72FF" stroke-width="0.7" stroke-linecap="round" stroke-linejoin="round"/>
<path d="M635.5 128L642 117.5L635.5 107H622.5L616 117.5L622.5 128H635.5Z" stroke="#4A72FF" stroke-width="0.7" stroke-linecap="round" stroke-linejoin="round"/>
<path d="M636 118L632 123" stroke="#4A72FF" stroke-width="0.7" stroke-linecap="round" stroke-linejoin="round"/>
<path d="M625 112H632" stroke="#4A72FF" stroke-width="0.7" stroke-linecap="round" stroke-linejoin="round"/>
</svg>
