<svg width="40" height="30" viewBox="0 0 40 30" fill="none" xmlns="http://www.w3.org/2000/svg">
<g clip-path="url(#clip0_2224_66075)">
<path d="M37.7151 6.45827L35.1392 5.81244L34.349 5.6166L31.4562 4.8916V2.0916C31.4562 0.770768 30.7196 0.141602 29.3669 0.141602H2.22405C0.875837 0.141602 0.134766 0.770768 0.134766 2.0916V22.2291C0.134766 23.5499 0.871373 24.1791 2.22405 24.1791H9.07673L31.041 29.6708C32.3446 29.9958 33.2285 29.5666 33.599 28.2916L34.3178 25.7833L39.1794 8.8416C39.5544 7.5666 39.0142 6.78327 37.7151 6.45827ZM3.62137 22.2291C2.49637 22.2291 2.22852 21.5958 2.22852 20.9291V3.3916C2.22852 2.3416 2.90709 2.0916 3.62137 2.0916H27.9785C28.6928 2.0916 29.3714 2.3416 29.3714 3.3916V20.9291C29.3714 21.5958 29.1035 22.2291 27.9785 22.2291H3.62137ZM31.9473 26.5374C31.7642 27.1791 31.3267 27.7249 30.2419 27.4541L31.3892 27.7416L17.1482 24.1791H29.3714C30.7196 24.1791 31.4607 23.5499 31.4607 22.2291V6.91244L35.8267 8.0041C36.5142 8.17494 37.099 8.58327 36.8089 9.59577L37.1705 8.3416L31.9473 26.5374ZM8.49191 5.3416C6.95619 5.3416 5.70619 6.5041 5.70619 7.9416C5.70619 9.37494 6.95173 10.5416 8.49191 10.5416C10.0276 10.5416 11.2776 9.3791 11.2776 7.9416C11.2732 6.5041 10.0276 5.3416 8.49191 5.3416Z" fill="#DDE1EB"/>
<path d="M3.1796 23.3957C2.93407 23.3957 2.68853 23.3207 2.48764 23.1666C2.01889 22.8082 1.95192 22.1666 2.33139 21.7291L8.89835 14.2374C9.26442 13.8207 9.91175 13.7416 10.3805 14.0541L14.5859 16.8582L20.5234 8.85407C20.7332 8.57074 21.068 8.40407 21.4564 8.41241C21.8269 8.42074 22.1662 8.60407 22.3582 8.89991L30.385 21.1624C30.7019 21.6457 30.5367 22.2707 30.0234 22.5666C29.5055 22.8582 28.8314 22.7082 28.5189 22.2291L21.3671 11.2999L15.7555 18.8666C15.5903 19.0916 15.3314 19.2457 15.0412 19.2916C14.7555 19.3374 14.4564 19.2749 14.2153 19.1166L9.943 16.2666L4.02782 23.0207C3.80907 23.2666 3.49657 23.3957 3.1796 23.3957Z" fill="#DDE1EB"/>
</g>
<rect x="0.5" y="0.5" width="39" height="29" stroke="white"/>
<defs>
<clipPath id="clip0_2224_66075">
<rect width="40" height="30" fill="white"/>
</clipPath>
</defs>
</svg>
