<svg width="61" height="61" viewBox="0 0 61 61" fill="none" xmlns="http://www.w3.org/2000/svg">
<path fill-rule="evenodd" clip-rule="evenodd" d="M57.4094 0C58.1986 0 58.9873 0 59.7764 0C58.2942 18.9175 49.142 32.6461 32.3192 41.1858C32.1616 41.1067 32.0035 41.0282 31.8458 40.9491C37.3178 29.3707 44.1031 18.6401 52.202 8.7579C51.8863 8.44214 51.571 8.44214 51.2552 8.7579C46.4369 13.2609 41.9396 18.0735 37.7633 23.1966C34.5717 28.3174 31.8889 33.6824 29.7155 39.2922C27.9194 23.7117 33.8369 12.1134 47.468 4.4973C50.8244 2.97485 54.1382 1.47559 57.4094 0Z" fill="#23262A"/>
<path fill-rule="evenodd" clip-rule="evenodd" d="M2.49512 10.4148C10.7356 11.4998 17.758 14.9717 23.5614 20.8296C26.256 25.2493 26.8871 29.9833 25.455 35.0316C22.0347 26.0895 15.9591 19.8563 7.22912 16.3323C14.208 21.6543 19.7311 28.2028 23.7981 35.9784C15.3124 34.9985 9.23728 30.5802 5.57222 22.7232C4.09852 18.722 3.07267 14.6191 2.49512 10.4148Z" fill="#23262A"/>
<path fill-rule="evenodd" clip-rule="evenodd" d="M15.277 36.4518C15.7485 36.4111 16.1429 36.5692 16.4605 36.9252C19.1433 41.5016 21.8255 46.0775 24.5083 50.6538C24.8241 51.2849 24.8241 51.9164 24.5083 52.5474C20.5999 55.0152 16.576 57.3032 12.4366 59.4117C7.10139 61.2021 3.23513 59.5452 0.838305 54.441C-0.928424 49.9073 0.0974343 46.1986 3.9154 43.3161C7.81149 41.1347 11.5987 38.8467 15.277 36.4518Z" fill="#4A72FF"/>
<path fill-rule="evenodd" clip-rule="evenodd" d="M44.6278 36.4519C48.7814 38.6087 52.8839 40.8967 56.9362 43.3162C60.5643 45.9516 61.7478 49.5021 60.4867 53.9677C58.336 58.7921 54.6274 60.7648 49.3618 59.8852C44.9071 57.619 40.5679 55.1735 36.3433 52.5475C36.384 51.0317 36.8574 49.6115 37.7635 48.2869C40.1437 44.4046 42.4321 40.4597 44.6278 36.4519Z" fill="#4A72FF"/>
<path fill-rule="evenodd" clip-rule="evenodd" d="M18.5909 53.0209C19.4804 52.9702 19.6381 53.2069 19.0643 53.731C16.3304 55.359 13.49 56.7792 10.5431 57.9916C8.37541 58.518 6.48181 58.0446 4.8623 56.5714C9.87088 57.0945 14.4472 55.911 18.5909 53.0209Z" fill="white"/>
<path fill-rule="evenodd" clip-rule="evenodd" d="M41.314 53.4942C41.3424 53.2371 41.5 53.0795 41.7874 53.0208C46.1294 56.0245 50.8634 57.208 55.9894 56.5713C54.19 58.0028 52.1387 58.4762 49.8352 57.9915C46.9072 56.6068 44.0668 55.108 41.314 53.4942Z" fill="white"/>
</svg>
