<svg width="114" height="114" viewBox="0 0 114 114" fill="none" xmlns="http://www.w3.org/2000/svg">
<g clip-path="url(#clip0_163_3229)">
<path d="M0.5 57C0.5 25.9261 25.9261 0.5 57 0.5C88.0739 0.5 113.5 25.9261 113.5 57C113.5 88.0739 88.0739 113.5 57 113.5C25.9261 113.5 0.5 88.0739 0.5 57ZM2.88437 57C2.88437 86.8449 27.1551 111.116 57 111.116C86.8449 111.116 111.116 86.8449 111.116 57C111.116 27.1551 86.8449 2.88437 57 2.88437C27.1551 2.88437 2.88437 27.1551 2.88437 57Z" fill="#4A72FF" stroke="#4A72FF"/>
<path d="M53.0621 73.891L53.0485 73.9046L53.036 73.9191C52.1668 74.9332 50.3895 74.9332 49.5203 73.9191L49.5078 73.9046L49.4942 73.891L35.2442 59.641C34.8046 59.2014 34.5 58.4384 34.5 57.857C34.5 57.1129 34.7933 56.524 35.2442 56.0731C35.6837 55.6335 36.4467 55.3289 37.0281 55.3289C37.7723 55.3289 38.3612 55.6222 38.8121 56.0731L49.6777 66.9387C50.5855 67.8465 51.9708 67.8465 52.8786 66.9387L65.7036 54.1137L78.5286 41.2887C79.5966 40.2207 81.2152 40.2629 82.0704 41.2606L82.0829 41.2751L82.0964 41.2887C82.5474 41.7396 82.8406 42.3285 82.8406 43.0727C82.8406 43.8168 82.5473 44.4057 82.0964 44.8566L53.0621 73.891Z" fill="#4A72FF" stroke="white"/>
</g>
<defs>
<clipPath id="clip0_163_3229">
<rect width="114" height="114" fill="white"/>
</clipPath>
</defs>
</svg>
